<svg width="194" height="28" viewBox="0 0 194 28" fill="none" xmlns="http://www.w3.org/2000/svg">
<path d="M23.92 27L23.884 11.88L16.468 24.336H13.84L6.46 12.204V27H0.988V1.8H5.812L15.244 17.46L24.532 1.8H29.32L29.392 27H23.92ZM44.1908 27.288C42.1508 27.288 40.3148 26.868 38.6828 26.028C37.0748 25.164 35.8148 23.976 34.9028 22.464C33.9908 20.952 33.5348 19.236 33.5348 17.316C33.5348 15.396 33.9908 13.68 34.9028 12.168C35.8148 10.656 37.0748 9.48 38.6828 8.64C40.3148 7.776 42.1508 7.344 44.1908 7.344C46.2308 7.344 48.0548 7.776 49.6628 8.64C51.2708 9.48 52.5308 10.656 53.4428 12.168C54.3548 13.68 54.8108 15.396 54.8108 17.316C54.8108 19.236 54.3548 20.952 53.4428 22.464C52.5308 23.976 51.2708 25.164 49.6628 26.028C48.0548 26.868 46.2308 27.288 44.1908 27.288ZM44.1908 22.68C45.6308 22.68 46.8068 22.2 47.7188 21.24C48.6548 20.256 49.1228 18.948 49.1228 17.316C49.1228 15.684 48.6548 14.388 47.7188 13.428C46.8068 12.444 45.6308 11.952 44.1908 11.952C42.7508 11.952 41.5628 12.444 40.6268 13.428C39.6908 14.388 39.2228 15.684 39.2228 17.316C39.2228 18.948 39.6908 20.256 40.6268 21.24C41.5628 22.2 42.7508 22.68 44.1908 22.68ZM70.3367 7.344C72.7367 7.344 74.6687 8.064 76.1327 9.504C77.6207 10.944 78.3647 13.08 78.3647 15.912V27H72.7487V16.776C72.7487 15.24 72.4127 14.1 71.7407 13.356C71.0687 12.588 70.0967 12.204 68.8247 12.204C67.4087 12.204 66.2807 12.648 65.4407 13.536C64.6007 14.4 64.1807 15.696 64.1807 17.424V27H58.5647V7.632H63.9287V9.9C64.6727 9.084 65.5967 8.46 66.7007 8.028C67.8047 7.572 69.0167 7.344 70.3367 7.344ZM91.7713 19.404L89.0713 22.068V27H83.4553V0.287998H89.0713V15.408L97.2793 7.632H103.975L95.9113 15.84L104.695 27H97.8913L91.7713 19.404ZM119.677 27.432C117.109 27.432 114.781 26.88 112.693 25.776C110.629 24.648 108.997 23.1 107.797 21.132C106.621 19.14 106.033 16.896 106.033 14.4C106.033 11.904 106.621 9.672 107.797 7.704C108.997 5.712 110.629 4.164 112.693 3.06C114.781 1.932 117.121 1.368 119.713 1.368C121.897 1.368 123.865 1.752 125.617 2.52C127.393 3.288 128.881 4.392 130.081 5.832L126.337 9.288C124.633 7.32 122.521 6.336 120.001 6.336C118.441 6.336 117.049 6.684 115.825 7.38C114.601 8.052 113.641 9 112.945 10.224C112.273 11.448 111.937 12.84 111.937 14.4C111.937 15.96 112.273 17.352 112.945 18.576C113.641 19.8 114.601 20.76 115.825 21.456C117.049 22.128 118.441 22.464 120.001 22.464C122.521 22.464 124.633 21.468 126.337 19.476L130.081 22.932C128.881 24.396 127.393 25.512 125.617 26.28C123.841 27.048 121.861 27.432 119.677 27.432ZM145.395 7.344C147.795 7.344 149.727 8.064 151.191 9.504C152.679 10.944 153.423 13.08 153.423 15.912V27H147.807V16.776C147.807 15.24 147.471 14.1 146.799 13.356C146.127 12.588 145.155 12.204 143.883 12.204C142.467 12.204 141.339 12.648 140.499 13.536C139.659 14.4 139.239 15.696 139.239 17.424V27H133.623V0.287998H139.239V9.648C139.983 8.904 140.883 8.34 141.939 7.956C142.995 7.548 144.147 7.344 145.395 7.344ZM166.326 7.344C169.326 7.344 171.63 8.064 173.238 9.504C174.846 10.92 175.65 13.068 175.65 15.948V27H170.394V24.588C169.338 26.388 167.37 27.288 164.49 27.288C163.002 27.288 161.706 27.036 160.602 26.532C159.522 26.028 158.694 25.332 158.118 24.444C157.542 23.556 157.254 22.548 157.254 21.42C157.254 19.62 157.926 18.204 159.27 17.172C160.638 16.14 162.738 15.624 165.57 15.624H170.034C170.034 14.4 169.662 13.464 168.918 12.816C168.174 12.144 167.058 11.808 165.57 11.808C164.538 11.808 163.518 11.976 162.51 12.312C161.526 12.624 160.686 13.056 159.99 13.608L157.974 9.684C159.03 8.94 160.29 8.364 161.754 7.956C163.242 7.548 164.766 7.344 166.326 7.344ZM165.894 23.508C166.854 23.508 167.706 23.292 168.45 22.86C169.194 22.404 169.722 21.744 170.034 20.88V18.9H166.182C163.878 18.9 162.726 19.656 162.726 21.168C162.726 21.888 163.002 22.464 163.554 22.896C164.13 23.304 164.91 23.508 165.894 23.508ZM193.225 26.064C192.673 26.472 191.989 26.784 191.173 27C190.381 27.192 189.541 27.288 188.653 27.288C186.349 27.288 184.561 26.7 183.289 25.524C182.041 24.348 181.417 22.62 181.417 20.34V12.384H178.429V8.064H181.417V3.348H187.033V8.064H191.857V12.384H187.033V20.268C187.033 21.084 187.237 21.72 187.645 22.176C188.077 22.608 188.677 22.824 189.445 22.824C190.333 22.824 191.089 22.584 191.713 22.104L193.225 26.064Z" fill="white"/>
</svg>
